<svg width="133" height="34" viewBox="0 0 133 34" fill="none" xmlns="http://www.w3.org/2000/svg">
<path d="M42.728 26V9.128H45.992V26H42.728ZM45.128 26V23.096H53.72V26H45.128ZM60.9673 26.24C59.7513 26.24 58.6713 25.984 57.7273 25.472C56.7833 24.944 56.0313 24.224 55.4713 23.312C54.9273 22.4 54.6553 21.36 54.6553 20.192C54.6553 19.04 54.9193 18.016 55.4473 17.12C55.9913 16.208 56.7273 15.488 57.6553 14.96C58.5833 14.416 59.6153 14.144 60.7513 14.144C61.8713 14.144 62.8553 14.4 63.7033 14.912C64.5673 15.408 65.2393 16.096 65.7193 16.976C66.2153 17.84 66.4633 18.824 66.4633 19.928C66.4633 20.136 66.4473 20.352 66.4153 20.576C66.3993 20.784 66.3593 21.024 66.2953 21.296L56.5513 21.32V18.968L64.8313 18.944L63.5593 19.928C63.5273 19.24 63.3993 18.664 63.1753 18.2C62.9673 17.736 62.6553 17.384 62.2393 17.144C61.8393 16.888 61.3433 16.76 60.7513 16.76C60.1273 16.76 59.5833 16.904 59.1193 17.192C58.6553 17.464 58.2953 17.856 58.0393 18.368C57.7993 18.864 57.6793 19.456 57.6793 20.144C57.6793 20.848 57.8073 21.464 58.0633 21.992C58.3353 22.504 58.7193 22.904 59.2153 23.192C59.7113 23.464 60.2873 23.6 60.9433 23.6C61.5353 23.6 62.0713 23.504 62.5513 23.312C63.0313 23.104 63.4473 22.8 63.7993 22.4L65.6473 24.248C65.0873 24.904 64.3993 25.4 63.5833 25.736C62.7833 26.072 61.9113 26.24 60.9673 26.24ZM73.2556 26.24C72.1996 26.24 71.2476 25.976 70.3996 25.448C69.5516 24.92 68.8876 24.2 68.4076 23.288C67.9276 22.376 67.6876 21.352 67.6876 20.216C67.6876 19.064 67.9276 18.032 68.4076 17.12C68.8876 16.208 69.5516 15.488 70.3996 14.96C71.2476 14.432 72.1996 14.168 73.2556 14.168C74.0876 14.168 74.8316 14.336 75.4876 14.672C76.1436 15.008 76.6636 15.48 77.0476 16.088C77.4476 16.68 77.6636 17.352 77.6956 18.104V22.28C77.6636 23.048 77.4476 23.728 77.0476 24.32C76.6636 24.912 76.1436 25.384 75.4876 25.736C74.8316 26.072 74.0876 26.24 73.2556 26.24ZM73.8316 23.336C74.7116 23.336 75.4236 23.048 75.9676 22.472C76.5116 21.88 76.7836 21.12 76.7836 20.192C76.7836 19.584 76.6556 19.048 76.3996 18.584C76.1596 18.104 75.8156 17.736 75.3676 17.48C74.9356 17.208 74.4236 17.072 73.8316 17.072C73.2556 17.072 72.7436 17.208 72.2956 17.48C71.8636 17.736 71.5196 18.104 71.2636 18.584C71.0236 19.048 70.9036 19.584 70.9036 20.192C70.9036 20.816 71.0236 21.368 71.2636 21.848C71.5196 22.312 71.8636 22.68 72.2956 22.952C72.7436 23.208 73.2556 23.336 73.8316 23.336ZM76.6156 26V22.88L77.1196 20.048L76.6156 17.264V14.408H79.7356V26H76.6156ZM82.517 26V14.408H85.661V26H82.517ZM85.661 19.592L84.437 18.776C84.581 17.352 84.997 16.232 85.685 15.416C86.373 14.584 87.365 14.168 88.661 14.168C89.221 14.168 89.725 14.264 90.173 14.456C90.621 14.632 91.029 14.928 91.397 15.344L89.429 17.6C89.253 17.408 89.037 17.264 88.781 17.168C88.541 17.072 88.261 17.024 87.941 17.024C87.269 17.024 86.717 17.24 86.285 17.672C85.869 18.088 85.661 18.728 85.661 19.592ZM100.255 26V19.352C100.255 18.664 100.039 18.104 99.6065 17.672C99.1745 17.24 98.6145 17.024 97.9265 17.024C97.4785 17.024 97.0785 17.12 96.7265 17.312C96.3745 17.504 96.0945 17.776 95.8865 18.128C95.6945 18.48 95.5985 18.888 95.5985 19.352L94.3745 18.728C94.3745 17.816 94.5665 17.024 94.9505 16.352C95.3505 15.664 95.8945 15.128 96.5825 14.744C97.2865 14.36 98.0785 14.168 98.9585 14.168C99.8065 14.168 100.567 14.384 101.239 14.816C101.911 15.232 102.439 15.784 102.823 16.472C103.207 17.144 103.398 17.872 103.398 18.656V26H100.255ZM92.4545 26V14.408H95.5985V26H92.4545ZM105.931 26V14.408H109.099V26H105.931ZM107.515 12.536C107.003 12.536 106.579 12.368 106.243 12.032C105.907 11.68 105.739 11.248 105.739 10.736C105.739 10.24 105.907 9.816 106.243 9.464C106.579 9.112 107.003 8.936 107.515 8.936C108.043 8.936 108.467 9.112 108.787 9.464C109.123 9.816 109.291 10.24 109.291 10.736C109.291 11.248 109.123 11.68 108.787 12.032C108.467 12.368 108.043 12.536 107.515 12.536ZM113.42 26V13.16C113.42 12.232 113.62 11.416 114.02 10.712C114.42 9.992 114.988 9.424 115.724 9.008C116.46 8.592 117.324 8.384 118.316 8.384C119.068 8.384 119.716 8.512 120.26 8.768C120.804 9.024 121.292 9.376 121.724 9.824L119.732 11.84C119.556 11.664 119.364 11.528 119.156 11.432C118.948 11.336 118.684 11.288 118.364 11.288C117.788 11.288 117.34 11.448 117.02 11.768C116.716 12.072 116.564 12.512 116.564 13.088V26H113.42ZM110.732 17.168V14.408H119.996V17.168H110.732ZM125.306 26.096L120.458 14.408H123.866L127.082 23.336H125.93L129.266 14.408H132.698L127.538 26.096H125.306ZM122.09 30.848L125.618 23.384L127.538 26.096L125.426 30.848H122.09Z" fill="#0E0E0E"/>
<circle cx="17" cy="17" r="17" fill="#00CA58"/>
<path d="M26.42 15.9221C26.5991 15.8431 26.751 15.7134 26.857 15.5489C26.963 15.3845 27.0184 15.1925 27.0164 14.9969C27.0143 14.8012 26.955 14.6104 26.8456 14.4482C26.7362 14.286 26.5817 14.1594 26.401 14.0841L17.83 10.1801C17.5695 10.0613 17.2864 9.99976 17 9.99976C16.7137 9.99976 16.4306 10.0613 16.17 10.1801L7.60004 14.0801C7.42201 14.1581 7.27056 14.2862 7.16421 14.4489C7.05786 14.6116 7.00122 14.8018 7.00122 14.9961C7.00122 15.1905 7.05786 15.3806 7.16421 15.5433C7.27056 15.706 7.42201 15.8341 7.60004 15.9121L16.17 19.8201C16.4306 19.939 16.7137 20.0005 17 20.0005C17.2864 20.0005 17.5695 19.939 17.83 19.8201L26.42 15.9221Z" stroke="white" stroke-width="2" stroke-linecap="round" stroke-linejoin="round"/>
<path d="M27 15V21" stroke="white" stroke-width="2" stroke-linecap="round" stroke-linejoin="round"/>
<path d="M11 17.5V21C11 21.7956 11.6321 22.5587 12.7574 23.1213C13.8826 23.6839 15.4087 24 17 24C18.5913 24 20.1174 23.6839 21.2426 23.1213C22.3679 22.5587 23 21.7956 23 21V17.5" stroke="white" stroke-width="2" stroke-linecap="round" stroke-linejoin="round"/>
</svg>
