<svg width="34" height="34" viewBox="0 0 34 34" fill="none" xmlns="http://www.w3.org/2000/svg">
<circle cx="17" cy="17" r="17" fill="#00CA58"/>
<path d="M26.42 15.9219C26.599 15.8429 26.7509 15.7131 26.8569 15.5487C26.9629 15.3842 27.0183 15.1923 27.0163 14.9966C27.0143 14.801 26.9549 14.6102 26.8455 14.448C26.7362 14.2857 26.5816 14.1591 26.401 14.0839L17.83 10.1799C17.5694 10.061 17.2864 9.99951 17 9.99951C16.7136 9.99951 16.4305 10.061 16.17 10.1799L7.59998 14.0799C7.42195 14.1578 7.2705 14.286 7.16415 14.4487C7.0578 14.6114 7.00116 14.8015 7.00116 14.9959C7.00116 15.1902 7.0578 15.3804 7.16415 15.5431C7.2705 15.7057 7.42195 15.8339 7.59998 15.9119L16.17 19.8199C16.4305 19.9387 16.7136 20.0002 17 20.0002C17.2864 20.0002 17.5694 19.9387 17.83 19.8199L26.42 15.9219Z" stroke="white" stroke-width="2" stroke-linecap="round" stroke-linejoin="round"/>
<path d="M27 15V21" stroke="white" stroke-width="2" stroke-linecap="round" stroke-linejoin="round"/>
<path d="M11 17.5V21C11 21.7956 11.6321 22.5587 12.7574 23.1213C13.8826 23.6839 15.4087 24 17 24C18.5913 24 20.1174 23.6839 21.2426 23.1213C22.3679 22.5587 23 21.7956 23 21V17.5" stroke="white" stroke-width="2" stroke-linecap="round" stroke-linejoin="round"/>
</svg>
